<?xml version="1.0" standalone="no"?>
<!DOCTYPE svg PUBLIC "-//W3C//DTD SVG 20010904//EN"
 "http://www.w3.org/TR/2001/REC-SVG-20010904/DTD/svg10.dtd">
<svg version="1.0" xmlns="http://www.w3.org/2000/svg"
 width="5092.000000pt" height="1400.000000pt" viewBox="0 0 5092.000000 1400.000000"
 preserveAspectRatio="xMidYMid meet">

<g transform="translate(0.000000,1400.000000) scale(0.100000,-0.100000)"
fill="#000000" stroke="none">
<path d="M8230 10840 c-644 -56 -1253 -267 -1808 -627 -362 -234 -706 -557
-979 -918 -128 -170 -332 -501 -316 -515 19 -16 1052 -710 1061 -712 6 -2 36
40 68 92 96 160 222 349 311 468 316 421 830 745 1375 866 227 51 315 60 593
60 294 1 401 -11 639 -71 190 -47 313 -93 496 -184 223 -112 429 -254 603
-418 l67 -64 118 114 c64 62 271 264 460 449 l343 335 -93 89 c-126 120 -326
279 -484 386 -538 364 -1097 571 -1729 640 -134 15 -594 21 -725 10z"/>
<path d="M12572 7005 l-1922 -3845 714 0 713 0 375 742 c207 409 748 1486
1203 2393 455 908 832 1654 836 1659 5 6 245 -465 569 -1117 l560 -1127 720 0
c474 0 720 3 720 10 0 10 -2558 5130 -2563 5130 -1 0 -867 -1730 -1925 -3845z"/>
<path d="M20125 7850 c-372 -49 -643 -303 -720 -675 -22 -106 -22 -304 0 -410
55 -262 212 -473 437 -584 154 -75 203 -86 398 -86 145 0 174 3 240 23 94 29
187 80 267 144 57 47 130 125 122 132 -2 2 -29 20 -60 39 l-57 36 -72 -70
c-199 -192 -482 -231 -749 -103 -215 104 -361 322 -390 581 -36 333 116 635
391 773 109 54 204 74 337 68 174 -8 321 -74 431 -194 l49 -54 60 37 c33 21
60 42 61 48 0 20 -148 153 -215 193 -154 90 -341 126 -530 102z"/>
<path d="M25475 7850 c-301 -48 -481 -263 -437 -522 23 -130 91 -217 222 -283
81 -40 147 -63 352 -120 188 -53 285 -96 349 -153 125 -111 124 -307 -1 -432
-83 -83 -228 -126 -392 -116 -169 9 -312 71 -435 189 l-62 59 -33 -38 c-56
-63 -60 -71 -48 -94 15 -28 117 -111 183 -149 119 -68 261 -101 433 -101 275
0 465 91 549 263 85 175 62 383 -55 511 -83 90 -200 144 -487 226 -258 74
-349 120 -398 205 -80 136 -7 304 167 386 71 33 76 34 203 34 142 0 193 -10
290 -57 65 -32 158 -99 180 -132 15 -20 15 -20 46 9 17 17 40 43 51 58 l20 28
-23 26 c-39 41 -142 111 -211 142 -121 55 -328 82 -463 61z"/>
<path d="M31346 7849 c-215 -29 -424 -148 -549 -311 -141 -184 -205 -429 -178
-674 45 -396 285 -674 659 -761 111 -26 319 -23 427 6 143 38 270 108 373 204
l52 50 0 303 0 304 -400 0 -400 0 0 -65 0 -65 325 0 325 0 0 -209 0 -209 -51
-41 c-134 -107 -254 -152 -424 -158 -146 -6 -223 9 -345 69 -120 59 -248 187
-308 308 -64 129 -85 219 -85 375 0 150 20 239 76 351 92 182 227 300 417 364
83 28 262 38 352 21 131 -26 262 -93 353 -182 l50 -48 53 40 c28 22 52 44 52
48 0 12 -112 114 -165 151 -67 46 -160 87 -249 110 -93 23 -263 33 -360 19z"/>
<path d="M42628 7849 c-135 -20 -275 -91 -343 -173 -19 -23 -47 -69 -62 -102
-26 -54 -28 -69 -28 -174 0 -103 3 -121 26 -170 44 -94 133 -167 269 -220 30
-12 141 -46 245 -76 297 -85 398 -144 453 -262 48 -105 16 -247 -75 -334 -84
-81 -183 -112 -353 -112 -108 0 -136 4 -205 27 -98 32 -184 83 -269 159 l-63
57 -49 -56 -48 -56 71 -67 c83 -78 192 -138 309 -172 69 -20 101 -23 249 -23
190 0 253 12 363 67 118 59 205 174 233 306 19 95 7 219 -29 296 -71 152 -207
230 -572 331 -312 87 -411 163 -409 317 2 182 168 308 403 308 170 0 315 -54
429 -160 l60 -55 43 50 c24 28 44 55 44 60 0 17 -80 90 -146 132 -138 89 -359
130 -546 102z"/>
<path d="M44956 7849 c-38 -5 -110 -23 -160 -40 -290 -97 -482 -316 -553 -634
-22 -98 -21 -317 2 -415 80 -345 302 -573 642 -657 103 -25 323 -22 428 6 143
38 270 108 373 204 l52 50 0 303 0 304 -395 0 -395 0 0 -65 0 -65 320 0 320 0
0 -210 0 -210 -57 -45 c-73 -58 -198 -120 -283 -139 -85 -20 -246 -20 -329 0
-36 9 -104 34 -151 57 -68 33 -102 58 -170 127 -97 97 -140 165 -181 282 -70
207 -58 429 36 623 97 200 266 334 478 380 115 25 275 17 382 -19 96 -33 204
-98 264 -160 l44 -45 53 37 c29 20 53 42 54 48 0 15 -103 112 -163 153 -69 47
-161 88 -251 111 -93 23 -263 33 -360 19z"/>
<path d="M21170 6975 l0 -855 75 0 75 0 0 405 0 405 540 0 540 0 0 -405 0
-405 75 0 75 0 0 855 0 855 -75 0 -75 0 0 -385 0 -385 -540 0 -540 0 0 385 0
385 -75 0 -75 0 0 -855z"/>
<path d="M22980 6975 l0 -855 70 0 70 0 0 350 0 350 188 0 189 0 238 -350 239
-350 88 0 c69 0 87 3 81 13 -4 6 -112 165 -240 351 -128 187 -232 341 -230
342 1 2 36 10 77 18 105 22 187 65 249 131 88 93 131 210 131 359 0 253 -153
438 -399 482 -54 9 -174 13 -413 14 l-338 0 0 -855z m794 681 c76 -37 140
-102 174 -174 24 -50 27 -69 27 -157 0 -89 -4 -106 -28 -157 -36 -73 -101
-139 -175 -175 l-57 -28 -297 -3 -298 -3 0 366 0 366 298 -3 297 -3 59 -29z"/>
<path d="M24500 6975 l0 -855 70 0 70 0 0 855 0 855 -70 0 -70 0 0 -855z"/>
<path d="M27736 7798 c-33 -79 -669 -1635 -677 -1655 -8 -23 -8 -23 75 -23
l84 0 85 208 85 207 453 0 453 0 85 -207 85 -208 83 0 c46 0 83 1 83 3 0 1
-157 385 -348 852 l-348 850 -92 3 -93 3 -13 -33z m309 -627 c107 -266 195
-487 195 -492 0 -5 -174 -9 -400 -9 -220 0 -400 3 -400 8 0 20 396 989 402
983 4 -3 95 -224 203 -490z"/>
<path d="M28890 6975 l0 -855 70 0 70 0 2 731 3 730 534 -730 533 -731 74 0
74 0 0 855 0 855 -70 0 -70 0 -2 -727 -3 -727 -535 727 -535 726 -72 1 -73 0
0 -855z"/>
<path d="M33015 7818 c-3 -7 -160 -391 -349 -853 l-343 -840 80 -3 c44 -2 82
-1 84 2 3 3 42 96 88 208 l83 203 453 0 454 0 84 -207 85 -208 83 0 c46 0 83
1 83 3 0 1 -156 385 -348 852 l-347 850 -93 3 c-68 2 -94 -1 -97 -10z m294
-629 c106 -264 196 -489 198 -500 5 -19 -5 -19 -397 -19 -334 0 -401 2 -398
14 6 28 393 986 398 986 3 0 92 -217 199 -481z"/>
<path d="M34160 6975 l0 -855 485 0 485 0 0 65 0 65 -412 2 -413 3 -3 788 -2
787 -70 0 -70 0 0 -855z"/>
<path d="M35450 6975 l0 -855 540 0 540 0 0 65 0 65 -467 2 -468 3 0 335 0
335 458 3 457 2 0 65 0 65 -457 2 -458 3 -3 313 -2 312 470 0 470 0 0 70 0 70
-540 0 -540 0 0 -855z"/>
<path d="M36770 7760 l0 -70 280 0 280 0 0 -785 0 -785 75 0 75 0 0 785 0 785
280 0 280 0 0 70 0 70 -635 0 -635 0 0 -70z"/>
<path d="M39010 6974 l0 -855 363 3 362 4 90 28 c144 44 237 98 336 196 178
176 260 397 246 669 -11 239 -97 434 -256 584 -87 82 -181 138 -296 176 -127
42 -229 51 -557 51 l-288 0 0 -856z m696 705 c129 -23 280 -104 362 -194 208
-224 252 -595 104 -880 -52 -101 -182 -229 -282 -277 -137 -67 -173 -72 -470
-73 l-265 0 -3 718 -2 717 248 0 c137 0 275 -5 308 -11z"/>
<path d="M40780 6975 l0 -855 540 0 540 0 0 65 0 65 -467 2 -468 3 0 335 0
335 463 3 462 2 0 65 0 65 -462 2 -463 3 -3 313 -2 312 470 0 470 0 0 70 0 70
-540 0 -540 0 0 -855z"/>
<path d="M43720 6975 l0 -855 70 0 70 0 0 855 0 855 -70 0 -70 0 0 -855z"/>
<path d="M46110 6975 l0 -855 75 0 75 0 2 729 3 729 530 -727 531 -726 77 -3
77 -3 0 856 0 855 -75 0 -75 0 -2 -722 -3 -722 -530 720 -530 719 -78 3 -77 3
0 -856z"/>
<path d="M4726 7612 c-2 -4 -12 -70 -22 -147 -23 -175 -26 -700 -6 -865 79
-638 285 -1196 637 -1725 343 -515 793 -927 1350 -1237 429 -238 885 -388
1385 -455 193 -26 744 -26 945 0 154 20 398 66 515 98 158 43 461 149 484 170
5 4 -326 230 -735 502 l-744 495 -150 5 c-403 16 -817 140 -1164 349 -327 198
-699 572 -894 899 -124 210 -222 439 -278 658 -31 119 -68 329 -70 391 -1 35
-5 38 -282 222 -155 102 -434 290 -621 417 -186 127 -340 231 -342 231 -1 0
-5 -3 -8 -8z"/>
<path d="M16588 3800 l316 -640 719 0 c395 0 717 4 715 8 -1 5 -146 293 -321
640 l-318 632 -714 0 -713 0 316 -640z"/>
</g>
</svg>
