<?xml version="1.0" encoding="utf-8"?>
<!-- Generator: Adobe Illustrator 26.0.1, SVG Export Plug-In . SVG Version: 6.00 Build 0)  -->
<svg version="1.1" id="Layer_1" xmlns="http://www.w3.org/2000/svg" xmlns:xlink="http://www.w3.org/1999/xlink" x="0px" y="0px"
	 viewBox="0 0 1454 770" style="enable-background:new 0 0 1454 770;" xml:space="preserve">
<style type="text/css">
	.st0{fill:#4E4E4D;}
	.st1{fill:#4E4E4E;}
	.st2{fill:#BF8F00;}
</style>
<path class="st0" d="M615.16,733.27c3.86-7.36,7.84-14.66,11.55-22.09C743.09,478.33,859.43,245.46,975.84,12.63
	c1.88-3.75,3.15-7.94,6.3-11.07c2.88,2.44,3.77,5.76,5.25,8.7c11.35,22.61,22.61,45.27,34.01,67.86c1.62,3.22,2.6,6.87,5.48,9.37
	c0.4,3.77,2.67,6.77,4.29,10c67.59,135.33,135.23,270.64,202.85,405.97c1.77,3.55,3.99,6.93,4.77,10.92
	c-20.97,0.13-41.95,0.32-62.92,0.38c-24.31,0.07-48.63-0.2-72.93,0.16c-6.23,0.09-9.41-2.02-12.12-7.55
	c-19.66-40.03-39.64-79.91-59.56-119.82c-1.62-3.24-2.7-6.84-5.63-9.31c-0.45-1.58-0.66-3.29-1.38-4.74
	c-13-26.23-26.05-52.44-39.12-78.64c-0.7-1.41-1.31-3.04-3.39-3.13c-2.57,1.84-3.33,4.87-4.65,7.5
	c-26.75,53.21-53.43,106.46-80.17,159.67c-39.58,78.78-79.21,157.53-118.78,236.31c-12.39,24.67-24.67,49.39-37,74.09
	c-2.87,1.14-5.89,0.86-8.86,0.86c-41.5,0.01-83,0.03-124.51-0.03c-2.86,0-5.95,0.83-9.05-1.44c1.76-7.74,7.45-13.87,9.23-21.57
	C611.63,743.16,613.55,738.3,615.16,733.27z"/>
<path class="st1" d="M153.1,279.44c-13.22-7.08-25.05-16.3-37.51-24.56c-21.36-14.16-42.5-28.66-63.73-43.02
	c-7.52-5.08-7.71-3.83-3.02-12.11c41.17-72.57,99.35-126.72,174.68-162.71C285.41,7.48,350.57-3.15,418.6,1.42
	c5.64,0.38,11.26,0.95,16.89,1.43c5.57,0.86,11.16,1.61,16.71,2.58c77.25,13.54,143.36,48.93,200.24,102.35
	c6.39,6,6.4,6.27,0.25,12.33c-15.61,15.39-31.34,30.65-47.02,45.95c-11.16,10.96-22.29,21.94-33.48,32.86
	c-4.92,4.81-5.06,4.87-10.09,0.24c-19.94-18.38-41.72-34.08-66.33-45.62c-21.78-10.21-44.38-17.78-68.47-20.27
	c-14.69-3.31-29.74-4.1-44.58-3.64c-16.86,0.52-33.78,1.92-50.47,5.4c-44.72,9.32-84,29.13-117.63,60.04
	C188.52,219.09,170.72,249.21,153.1,279.44z"/>
<path class="st1" d="M433.63,767.63c-43.32,4.51-86.36,3.35-128.99-6.28c-70.16-15.85-131.56-48.63-183.5-98.08
	c-61.13-58.2-99.19-129.53-114.9-212.49c-7.43-39.22-7.34-78.76-2.29-118.31c0.33-2.62,1.17-5.17,1.73-7.59
	c2.53-0.94,4,0.67,5.59,1.73c39.19,26.43,78.37,52.88,117.52,79.36c1.07,0.72,1.88,1.83,2.81,2.76c0.07,19.2,4.83,37.55,10.69,55.57
	c15.02,46.13,42.24,84.02,78.58,115.85c44.98,39.4,97.86,57.91,156.86,60.56c6.26,0.28,11.46,1.65,16.67,5.14
	c44.24,29.64,88.63,59.06,132.92,88.63c2.4,1.6,5.53,2.52,6.95,6.19C502.16,755.19,468.38,763.21,433.63,767.63z"/>
<path class="st2" d="M1238.78,514.38c-0.78-3.99-3-7.37-4.77-10.92c-67.61-135.32-135.25-270.63-202.85-405.97
	c-1.62-3.24-3.89-6.23-4.29-10c14.35-28.51,28.7-57.02,43.13-85.67c5.61,5.73,254.33,502.95,256.36,512.56
	C1297.08,514.38,1267.93,514.38,1238.78,514.38z"/>
<path class="st2" d="M741.14,769.31c12.33-24.7,24.61-49.42,37-74.09c39.57-78.78,79.2-157.53,118.78-236.31
	c26.74-53.22,53.42-106.46,80.17-159.67c1.32-2.63,2.08-5.66,4.65-7.5c2.08,0.08,2.68,1.71,3.39,3.13
	c13.07,26.2,26.12,52.41,39.12,78.64c0.72,1.45,0.93,3.15,1.38,4.74c-25.71,51.51-51.37,103.05-77.15,154.53
	c-31,61.9-62.07,123.76-93.17,185.61c-7.62,15.16-15.58,30.15-23.18,45.32c-1.99,3.98-4.33,6.12-9.12,6.06
	C795.72,769.47,768.43,769.43,741.14,769.31z"/>
<path class="st2" d="M433.63,767.63c34.75-4.43,68.52-12.44,100.63-26.96c-1.42-3.66-4.55-4.59-6.95-6.19
	c-44.29-29.57-88.68-59-132.92-88.63c-5.2-3.49-10.41-4.86-16.67-5.14c-59-2.64-111.88-21.15-156.86-60.56
	c-36.34-31.84-63.56-69.72-78.58-115.85c-5.87-18.02-10.63-36.37-10.69-55.57c12.57,6.87,24,15.52,35.91,23.42
	c20.26,13.43,40.26,27.24,60.58,40.58c5.54,3.64,8.88,8.22,11.7,14.21c31.89,67.52,81.58,115.93,152.8,140.73
	c24.69,8.6,50.37,12.1,76.4,13.06c4.58,0.17,8.26,1.49,11.98,3.97c41.85,27.86,83.77,55.61,125.69,83.37
	c2.77,1.83,5.67,3.47,8.5,5.19c-1.61,5.03-3.54,9.9-7.2,13.86c-36.18,13.03-73.34,20.55-111.87,22.59
	c-19.7,1.04-39.14-0.57-58.7-1.01C436.13,768.67,434.88,768,433.63,767.63z"/>
<path class="st1" d="M1366.09,769.79c-45.58,0.08-91.16,0.12-136.73,0.29c-4.09,0.02-6.72-1.05-8.66-4.99
	c-19.38-39.38-38.94-78.67-58.43-117.99c-0.72-1.46-1.69-2.91-0.77-4.76c1.58-1.57,3.67-0.88,5.53-0.89
	c43.59-0.05,87.17-0.04,130.76-0.02c1.66,0,3.31,0.24,4.96,0.36c17.99,35.75,36.01,71.48,53.95,107.26
	C1360.1,755.83,1364.27,762.28,1366.09,769.79z"/>
<path class="st2" d="M605.66,166.07c15.68-15.31,31.42-30.57,47.02-45.95c6.15-6.06,6.15-6.33-0.25-12.33
	C595.56,54.37,529.45,18.97,452.2,5.43c-5.55-0.97-11.14-1.73-16.71-2.58c6.37-2.67,13.12-1.59,19.69-1.82
	c38.05-1.32,75.83,0.58,112.95,10.04c57.13,14.55,107.9,41.41,153.1,79.03c7.16,5.96,14.05,12.26,20.77,18.72
	c5.19,4.98,5.18,5.45,0.22,10.38c-18.19,18.08-36.51,36.04-54.83,54c-8.09,7.92-16.27,15.75-24.48,23.55
	c-7.43,7.06-7.41,6.97-14.64,0.27c-10.77-9.98-22.33-18.96-34.58-27.05C611.17,168.29,608.65,166.72,605.66,166.07z"/>
<path class="st2" d="M153.1,279.44c17.62-30.23,35.42-60.35,61.53-84.35c33.62-30.91,72.91-50.72,117.63-60.04
	c16.68-3.48,33.61-4.87,50.47-5.4c14.84-0.46,29.89,0.33,44.58,3.64c-7.35,1.89-14.73,3.72-22.06,5.7
	c-47.21,12.75-86.76,37.72-119.51,74.02c-28.4,31.48-48.45,67.3-59.04,108.4c-0.48,1.87-1.43,3.61-2.08,5.21
	c-3.07,0.49-4.83-1.26-6.7-2.52c-20.96-14.12-41.89-28.29-62.81-42.48C154.3,281.07,153.76,280.17,153.1,279.44z"/>
<path class="st2" d="M1366.09,769.79c-1.82-7.51-5.99-13.96-9.39-20.74c-17.93-35.78-35.96-71.51-53.95-107.26
	c27.59-0.15,55.18-0.16,82.76-0.58c5.72-0.09,7.28,3.49,9.23,7.38c11.33,22.59,22.65,45.17,34.04,67.73
	c7.19,14.24,14.51,28.42,21.76,42.63c1.06,2.07,2.01,4.2,3.07,6.27c1.58,3.13,1.15,5.13-2.82,5.25c-1,0.03-1.99,0.04-2.99,0.04
	c-25.94,0-51.87,0-77.81-0.05C1368.69,770.47,1367.39,770.03,1366.09,769.79z"/>
</svg>
